<?xml version="1.0" standalone="no"?>
<!DOCTYPE svg PUBLIC "-//W3C//DTD SVG 20010904//EN"
 "http://www.w3.org/TR/2001/REC-SVG-20010904/DTD/svg10.dtd">
<svg version="1.0" xmlns="http://www.w3.org/2000/svg"
 width="300.000000pt" height="95.000000pt" viewBox="0 0 300.000000 95.000000"
 preserveAspectRatio="xMidYMid meet">
<metadata>
Created by potrace 1.10, written by Peter Selinger 2001-2011
</metadata>
<g transform="translate(0.000000,95.000000) scale(0.100000,-0.100000)"
fill="#000000" stroke="none">
<path d="M63 804 c-30 -46 -43 -141 -43 -324 0 -181 15 -290 45 -336 l15 -24
255 0 254 0 16 29 c17 34 45 185 45 247 0 42 1 44 31 44 55 0 27 25 -35 30
-55 5 -57 5 -53 -17 2 -13 0 -23 -4 -23 -5 0 -9 15 -9 34 0 19 -5 36 -12 38
-8 3 -8 9 0 24 10 17 11 17 12 2 0 -10 5 -18 11 -18 5 0 7 -4 4 -10 -4 -6 14
-9 47 -9 29 1 44 4 32 6 -19 4 -22 13 -27 81 -10 124 -28 201 -51 229 -20 23
-24 24 -44 12 -12 -7 -26 -25 -32 -39 -16 -40 -40 -152 -40 -189 0 -25 -4 -32
-15 -27 -17 6 -20 -5 -6 -19 5 -6 11 -57 14 -115 6 -108 22 -168 57 -225 11
-18 20 -35 20 -39 0 -3 -102 -5 -227 -4 l-228 3 -18 53 c-11 35 -20 102 -24
188 l-6 134 24 1 c15 1 18 3 8 6 -27 7 -43 83 -31 150 18 99 26 113 69 114 21
1 49 5 63 9 19 6 9 8 -37 9 -57 1 -64 -1 -80 -25z m533 -25 c10 -21 11 -29 3
-23 -9 5 -10 2 -5 -11 3 -10 10 -46 13 -79 5 -46 8 -55 13 -36 5 16 7 3 7 -35
0 -33 2 -66 4 -74 2 -7 -1 -15 -7 -18 -7 -2 -14 8 -18 22 -4 15 -13 25 -25 25
-23 0 -31 -19 -31 -75 0 -24 3 -50 6 -59 9 -23 41 -20 49 4 3 11 12 20 20 20
15 0 12 -40 -15 -164 -25 -121 -42 -114 -60 24 -20 158 -6 398 27 449 11 16
11 22 2 19 -32 -11 -42 -80 -46 -303 -1 -121 -3 -222 -4 -225 -1 -3 -5 13 -10
35 -11 57 -11 318 1 393 12 70 37 142 51 142 5 0 16 -14 25 -31z"/>
<path d="M229 817 c-25 -19 -36 -47 -53 -138 -20 -105 -20 -119 -1 -119 14 0
19 17 30 118 3 30 13 72 22 93 14 35 19 39 52 40 20 1 47 5 61 9 19 6 10 8
-35 9 -33 0 -67 -5 -76 -12z"/>
<path d="M389 817 c-25 -19 -37 -49 -50 -123 -22 -136 -22 -135 -5 -128 16 6
20 23 31 123 3 30 12 69 20 88 12 29 19 33 52 34 21 1 49 5 63 9 19 6 10 8
-35 9 -33 0 -67 -5 -76 -12z"/>
<path d="M1338 823 c-29 -3 -48 -9 -48 -16 0 -7 7 -91 15 -187 8 -96 15 -187
15 -202 0 -25 4 -28 31 -28 l32 0 -7 140 c-4 78 -9 147 -13 155 -3 8 -1 15 3
15 9 0 94 -262 94 -287 0 -8 15 -13 40 -13 l40 0 0 199 c0 110 3 206 6 215 5
13 -2 16 -36 16 l-43 0 7 -127 c3 -70 11 -130 17 -134 5 -3 9 -27 8 -53 -2
-25 -6 -43 -10 -39 -13 15 -29 78 -21 81 5 1 0 31 -10 65 -22 70 -70 208 -72
205 0 -1 -22 -3 -48 -5z m37 -77 c7 -21 6 -29 -5 -36 -23 -15 -29 -12 -36 15
-14 55 22 74 41 21z"/>
<path d="M1597 686 c-4 -78 -7 -173 -7 -213 l0 -72 58 -6 c31 -3 71 -7 89 -10
25 -3 32 1 37 18 12 44 8 47 -54 47 l-60 0 0 66 0 67 55 -7 55 -6 0 35 0 35
-50 0 c-48 0 -50 1 -50 29 0 16 3 43 6 60 l7 32 68 -7 69 -7 0 31 c0 33 12 30
-176 46 l-41 3 -6 -141z"/>
<path d="M2398 813 c-25 -29 -37 -79 -50 -199 -11 -110 -12 -113 -37 -117 -14
-2 -2 -5 27 -6 69 -1 67 -21 -3 -21 -42 0 -55 -3 -55 -15 0 -10 10 -15 29 -15
28 0 28 0 35 -82 8 -97 21 -160 43 -205 l15 -33 254 0 254 0 15 24 c29 44 47
164 47 321 1 167 -15 288 -43 334 -18 30 -22 31 -81 30 -47 -1 -57 -3 -38 -9
14 -4 41 -8 61 -9 33 -1 38 -5 52 -39 23 -57 31 -145 17 -186 -6 -20 -16 -36
-21 -36 -6 0 -3 -8 7 -17 15 -15 16 -32 11 -128 -7 -127 -22 -209 -44 -230
-12 -12 -52 -15 -227 -15 -117 0 -216 3 -219 6 -4 4 2 19 12 33 34 48 53 124
58 235 5 95 8 109 24 113 11 3 19 13 18 22 0 10 -2 11 -6 4 -2 -7 -13 -13 -22
-13 -15 0 -19 11 -24 58 -10 93 -36 175 -60 194 -28 22 -30 22 -49 1z m43 -30
c25 -65 40 -175 41 -298 0 -122 -10 -251 -18 -242 -3 2 -6 103 -7 223 -3 223
-13 291 -45 302 -11 3 -10 -2 2 -20 26 -40 39 -178 33 -338 -6 -150 -20 -224
-40 -217 -11 3 -29 81 -46 195 -7 50 -7 52 16 52 18 0 23 5 23 28 0 44 11 76
21 60 12 -18 11 -31 -1 -23 -6 4 -10 -10 -10 -34 0 -23 -4 -41 -10 -41 -5 0
-10 -7 -10 -16 0 -10 7 -14 23 -12 19 3 22 10 25 52 2 27 1 60 -3 73 -8 32
-41 30 -49 -2 -12 -48 -24 -24 -24 48 0 50 3 66 9 52 7 -15 8 -9 6 22 -1 23 1
39 5 37 7 -5 13 36 10 76 -1 19 16 50 29 50 5 0 14 -12 20 -27z"/>
<path d="M2490 820 c14 -4 42 -8 63 -9 33 -1 40 -5 52 -35 8 -18 19 -74 26
-123 8 -64 15 -90 25 -90 18 0 18 12 -2 116 -25 135 -39 151 -129 150 -45 -1
-54 -3 -35 -9z"/>
<path d="M2650 820 c14 -4 42 -8 63 -9 33 -1 40 -5 51 -33 8 -18 19 -71 25
-117 10 -74 25 -110 40 -96 2 3 -2 38 -9 77 -30 173 -41 189 -134 187 -46 -1
-55 -3 -36 -9z"/>
<path d="M1130 801 l-115 -16 2 -29 c3 -37 2 -36 45 -27 44 10 38 26 70 -197
l23 -163 30 7 c16 3 32 8 34 10 3 3 -23 239 -36 327 l-6 37 42 0 c40 0 41 1
41 35 0 19 -3 34 -7 34 -5 -1 -60 -9 -123 -18z"/>
<path d="M1879 762 c-26 -23 -32 -36 -32 -70 0 -33 9 -53 50 -109 59 -79 67
-101 54 -137 -19 -48 -80 -23 -67 28 5 20 1 24 -26 30 -39 8 -43 4 -43 -46 0
-33 6 -45 33 -69 60 -54 147 -31 172 46 15 46 3 81 -51 151 -63 82 -62 151 3
142 18 -2 24 -10 26 -35 2 -18 9 -33 15 -33 7 0 22 -3 35 -6 20 -6 22 -3 22
30 0 48 -13 72 -50 91 -48 25 -105 19 -141 -13z"/>
<path d="M928 768 c-25 -7 -35 -14 -31 -24 3 -7 24 -99 47 -204 24 -105 45
-192 47 -194 10 -9 70 7 65 19 -2 6 -21 99 -41 206 -21 107 -40 197 -44 200
-3 3 -23 2 -43 -3z"/>
<path d="M753 722 c-51 -15 -93 -31 -94 -37 0 -5 27 -98 62 -206 l62 -197 31
11 c17 5 32 11 33 12 2 0 -9 39 -23 84 -14 46 -24 84 -22 86 2 1 21 7 43 12
36 8 40 12 38 37 -1 16 -4 30 -6 32 -2 2 -23 -3 -47 -11 -23 -8 -43 -15 -45
-15 -5 0 -38 121 -34 125 3 2 27 10 54 16 28 7 54 16 58 20 9 7 -1 59 -12 58
-3 0 -48 -12 -98 -27z"/>
<path d="M2170 727 c-42 -14 -74 -67 -66 -110 3 -15 24 -57 46 -94 54 -90 54
-159 -1 -151 -20 2 -24 9 -24 38 0 30 -4 37 -30 46 -36 13 -45 5 -45 -47 0
-92 117 -141 179 -75 47 50 43 112 -13 196 -31 47 -40 81 -32 116 6 21 11 25
39 22 29 -3 32 -6 31 -35 -2 -24 3 -34 17 -38 10 -3 28 -8 39 -11 18 -5 20 -1
20 36 0 64 -28 94 -105 114 -11 2 -36 -1 -55 -7z"/>
<path d="M70 667 c0 -10 32 -67 41 -72 15 -10 10 8 -11 43 -17 28 -30 40 -30
29z"/>
<path d="M2570 655 c-7 -8 -9 -15 -6 -15 4 0 2 -9 -4 -21 -7 -11 -9 -23 -6
-26 2 -3 12 12 21 32 17 42 15 54 -5 30z"/>
<path d="M1318 319 c-15 -8 -18 -24 -18 -92 0 -51 5 -88 12 -95 15 -15 51 -15
66 0 18 18 15 68 -3 68 -9 0 -15 -9 -15 -25 0 -16 -6 -25 -15 -25 -13 0 -15
12 -13 72 2 46 7 73 16 76 7 2 12 -6 12 -22 0 -16 6 -26 15 -26 23 0 20 57 -4
70 -24 12 -31 12 -53 -1z"/>
<path d="M1410 225 l0 -106 43 3 c46 3 54 21 12 26 -26 3 -26 4 -24 90 2 74 0
87 -15 90 -14 3 -16 -9 -16 -103z"/>
<path d="M1509 323 c-4 -48 5 -181 13 -190 13 -16 50 -17 66 -1 8 8 12 46 12
105 0 76 -3 93 -15 93 -12 0 -15 -17 -15 -90 0 -73 -3 -90 -15 -90 -12 0 -15
17 -15 90 0 73 -3 90 -15 90 -8 0 -15 -3 -16 -7z"/>
<path d="M1620 220 l0 -100 34 0 c19 0 42 7 50 16 18 18 21 65 6 80 -8 8 -7
19 1 36 18 41 -2 68 -51 68 l-40 0 0 -100z m58 47 c2 -19 -1 -27 -12 -27 -11
0 -16 10 -16 31 0 38 24 35 28 -4z m7 -87 c0 -16 -6 -26 -17 -28 -14 -3 -18 3
-18 28 0 25 4 31 18 28 11 -2 17 -12 17 -28z"/>
<path d="M735 220 c4 -6 97 -10 246 -10 153 0 239 4 239 10 0 6 -89 10 -246
10 -161 0 -243 -3 -239 -10z"/>
<path d="M1800 220 c0 -6 87 -10 240 -10 153 0 240 4 240 10 0 6 -87 10 -240
10 -153 0 -240 -4 -240 -10z"/>
</g>
</svg>
